<mxfile host="app.diagrams.net" agent="Mozilla/5.0 (Windows NT 10.0; Win64; x64) AppleWebKit/537.36 (KHTML, like Gecko) Chrome/130.0.0.0 Safari/537.36" version="24.8.3">
  <diagram id="C5RBs43oDa-KdzZeNtuy" name="Page-1">
    <mxGraphModel dx="1434" dy="772" grid="1" gridSize="10" guides="1" tooltips="1" connect="1" arrows="1" fold="1" page="1" pageScale="1" pageWidth="827" pageHeight="1169" math="0" shadow="0">
      <root>
        <mxCell id="WIyWlLk6GJQsqaUBKTNV-0" />
        <mxCell id="WIyWlLk6GJQsqaUBKTNV-1" parent="WIyWlLk6GJQsqaUBKTNV-0" />
        <mxCell id="5BztQn5_08TIMHJcGIpN-2" value="" style="edgeStyle=orthogonalEdgeStyle;rounded=0;orthogonalLoop=1;jettySize=auto;labelBorderColor=none;html=1;verticalAlign=middle;fontFamily=Lucida Console;fontSize=12;" edge="1" parent="WIyWlLk6GJQsqaUBKTNV-1" source="WIyWlLk6GJQsqaUBKTNV-2" target="WIyWlLk6GJQsqaUBKTNV-3">
          <mxGeometry relative="1" as="geometry" />
        </mxCell>
        <mxCell id="WIyWlLk6GJQsqaUBKTNV-2" value="Búsqueda de fuentes" style="shape=manual;whiteSpace=wrap;fontSize=12;glass=0;strokeWidth=1;shadow=0;labelBorderColor=none;html=1;verticalAlign=middle;fontFamily=Lucida Console;" parent="WIyWlLk6GJQsqaUBKTNV-1" vertex="1">
          <mxGeometry x="70" y="40" width="120" height="40" as="geometry" />
        </mxCell>
        <mxCell id="WIyWlLk6GJQsqaUBKTNV-3" value="¿Cumple con los criterios de inclusión?" style="rhombus;whiteSpace=wrap;shadow=0;fontFamily=Lucida Console;fontSize=12;align=center;strokeWidth=1;spacing=6;spacingTop=-4;dashed=1;dashPattern=8 8;fillStyle=solid;labelBorderColor=none;html=1;verticalAlign=middle;" parent="WIyWlLk6GJQsqaUBKTNV-1" vertex="1">
          <mxGeometry x="60" y="120" width="140" height="80" as="geometry" />
        </mxCell>
        <mxCell id="WIyWlLk6GJQsqaUBKTNV-4" value="Sí" style="rounded=0;jettySize=auto;orthogonalLoop=1;fontSize=12;endArrow=block;endFill=0;endSize=8;strokeWidth=1;shadow=0;labelBackgroundColor=none;edgeStyle=orthogonalEdgeStyle;labelBorderColor=none;html=1;verticalAlign=middle;fontFamily=Lucida Console;" parent="WIyWlLk6GJQsqaUBKTNV-1" source="WIyWlLk6GJQsqaUBKTNV-3" target="WIyWlLk6GJQsqaUBKTNV-7" edge="1">
          <mxGeometry y="20" relative="1" as="geometry">
            <mxPoint as="offset" />
          </mxGeometry>
        </mxCell>
        <mxCell id="WIyWlLk6GJQsqaUBKTNV-5" value="No" style="edgeStyle=orthogonalEdgeStyle;rounded=0;jettySize=auto;orthogonalLoop=1;fontSize=12;endArrow=block;endFill=0;endSize=8;strokeWidth=1;shadow=0;labelBackgroundColor=none;labelBorderColor=none;html=1;verticalAlign=middle;fontFamily=Lucida Console;" parent="WIyWlLk6GJQsqaUBKTNV-1" source="WIyWlLk6GJQsqaUBKTNV-3" target="WIyWlLk6GJQsqaUBKTNV-6" edge="1">
          <mxGeometry y="10" relative="1" as="geometry">
            <mxPoint as="offset" />
          </mxGeometry>
        </mxCell>
        <mxCell id="WIyWlLk6GJQsqaUBKTNV-6" value="Se descarta" style="rounded=1;whiteSpace=wrap;fontSize=12;glass=0;strokeWidth=1;shadow=0;labelBorderColor=none;html=1;verticalAlign=middle;fontFamily=Lucida Console;" parent="WIyWlLk6GJQsqaUBKTNV-1" vertex="1">
          <mxGeometry x="290" y="190" width="120" height="40" as="geometry" />
        </mxCell>
        <mxCell id="5BztQn5_08TIMHJcGIpN-3" value="" style="edgeStyle=orthogonalEdgeStyle;rounded=0;orthogonalLoop=1;jettySize=auto;labelBorderColor=none;html=1;verticalAlign=middle;fontFamily=Lucida Console;fontSize=12;" edge="1" parent="WIyWlLk6GJQsqaUBKTNV-1" source="WIyWlLk6GJQsqaUBKTNV-7" target="WIyWlLk6GJQsqaUBKTNV-8">
          <mxGeometry relative="1" as="geometry" />
        </mxCell>
        <mxCell id="WIyWlLk6GJQsqaUBKTNV-7" value="Descarga de PDFs" style="rounded=1;whiteSpace=wrap;fontSize=12;glass=0;strokeWidth=1;shadow=0;labelBorderColor=none;html=1;verticalAlign=middle;fontFamily=Lucida Console;" parent="WIyWlLk6GJQsqaUBKTNV-1" vertex="1">
          <mxGeometry x="70" y="260" width="120" height="40" as="geometry" />
        </mxCell>
        <mxCell id="5BztQn5_08TIMHJcGIpN-8" value="" style="edgeStyle=orthogonalEdgeStyle;rounded=0;orthogonalLoop=1;jettySize=auto;labelBorderColor=none;html=1;verticalAlign=middle;fontFamily=Lucida Console;fontSize=12;" edge="1" parent="WIyWlLk6GJQsqaUBKTNV-1" source="WIyWlLk6GJQsqaUBKTNV-8" target="WIyWlLk6GJQsqaUBKTNV-9">
          <mxGeometry relative="1" as="geometry" />
        </mxCell>
        <mxCell id="WIyWlLk6GJQsqaUBKTNV-8" value="Generación de archivos XML-TEI" style="rounded=1;whiteSpace=wrap;fontSize=12;glass=0;strokeWidth=1;shadow=0;labelBorderColor=none;html=1;verticalAlign=middle;fontFamily=Lucida Console;" parent="WIyWlLk6GJQsqaUBKTNV-1" vertex="1">
          <mxGeometry x="70" y="330" width="120" height="40" as="geometry" />
        </mxCell>
        <mxCell id="5BztQn5_08TIMHJcGIpN-9" value="" style="edgeStyle=orthogonalEdgeStyle;rounded=0;orthogonalLoop=1;jettySize=auto;labelBorderColor=none;html=1;verticalAlign=middle;fontFamily=Lucida Console;fontSize=12;" edge="1" parent="WIyWlLk6GJQsqaUBKTNV-1" source="WIyWlLk6GJQsqaUBKTNV-9" target="WIyWlLk6GJQsqaUBKTNV-10">
          <mxGeometry relative="1" as="geometry" />
        </mxCell>
        <mxCell id="WIyWlLk6GJQsqaUBKTNV-9" value="Extracción de XML" style="rounded=1;whiteSpace=wrap;fontSize=12;glass=0;strokeWidth=1;shadow=0;labelBorderColor=none;html=1;verticalAlign=middle;fontFamily=Lucida Console;" parent="WIyWlLk6GJQsqaUBKTNV-1" vertex="1">
          <mxGeometry x="70" y="400" width="120" height="40" as="geometry" />
        </mxCell>
        <mxCell id="5BztQn5_08TIMHJcGIpN-10" value="" style="edgeStyle=orthogonalEdgeStyle;rounded=0;orthogonalLoop=1;jettySize=auto;labelBorderColor=none;html=1;verticalAlign=middle;fontFamily=Lucida Console;fontSize=12;" edge="1" parent="WIyWlLk6GJQsqaUBKTNV-1" source="WIyWlLk6GJQsqaUBKTNV-10" target="5BztQn5_08TIMHJcGIpN-0">
          <mxGeometry relative="1" as="geometry" />
        </mxCell>
        <mxCell id="WIyWlLk6GJQsqaUBKTNV-10" value="Conversión a TXT" style="rounded=1;whiteSpace=wrap;fontSize=12;glass=0;strokeWidth=1;shadow=0;labelBorderColor=none;html=1;verticalAlign=middle;fontFamily=Lucida Console;" parent="WIyWlLk6GJQsqaUBKTNV-1" vertex="1">
          <mxGeometry x="260" y="400" width="120" height="40" as="geometry" />
        </mxCell>
        <mxCell id="5BztQn5_08TIMHJcGIpN-11" value="" style="edgeStyle=orthogonalEdgeStyle;rounded=0;orthogonalLoop=1;jettySize=auto;labelBorderColor=none;html=1;verticalAlign=middle;fontFamily=Lucida Console;fontSize=12;" edge="1" parent="WIyWlLk6GJQsqaUBKTNV-1" source="5BztQn5_08TIMHJcGIpN-0" target="5BztQn5_08TIMHJcGIpN-1">
          <mxGeometry relative="1" as="geometry" />
        </mxCell>
        <mxCell id="5BztQn5_08TIMHJcGIpN-0" value="Dataset" style="shape=datastore;whiteSpace=wrap;labelBorderColor=none;html=1;verticalAlign=middle;fontFamily=Lucida Console;fontSize=12;" vertex="1" parent="WIyWlLk6GJQsqaUBKTNV-1">
          <mxGeometry x="260" y="480" width="120" height="70" as="geometry" />
        </mxCell>
        <mxCell id="5BztQn5_08TIMHJcGIpN-1" value="Anotación del corpus" style="shape=manualInput;whiteSpace=wrap;labelBorderColor=none;html=1;verticalAlign=bottom;fontFamily=Lucida Console;fontSize=12;" vertex="1" parent="WIyWlLk6GJQsqaUBKTNV-1">
          <mxGeometry x="430" y="481" width="90" height="67.5" as="geometry" />
        </mxCell>
      </root>
    </mxGraphModel>
  </diagram>
</mxfile>
